<?xml version="1.0" standalone="no"?>
<!DOCTYPE svg PUBLIC "-//W3C//DTD SVG 20010904//EN"
 "http://www.w3.org/TR/2001/REC-SVG-20010904/DTD/svg10.dtd">
<svg version="1.0" xmlns="http://www.w3.org/2000/svg"
 width="200.000000pt" height="200.000000pt" viewBox="0 0 200.000000 200.000000"
 preserveAspectRatio="xMidYMid meet">

<g transform="translate(0.000000,200.000000) scale(0.100000,-0.100000)"
fill="#000000" stroke="none">
<path d="M1495 1908 c-111 -89 -183 -114 -438 -153 -195 -30 -287 -52 -392
-94 -152 -61 -266 -156 -379 -315 -62 -87 -69 -107 -28 -80 15 10 47 29 72 42
43 23 44 23 15 1 -60 -45 -155 -151 -194 -217 -43 -72 -94 -196 -84 -206 3 -3
17 4 31 14 14 11 26 19 28 17 2 -2 -10 -37 -25 -78 -43 -109 -61 -212 -61
-342 0 -135 13 -215 40 -241 18 -19 25 -19 108 -8 197 26 300 7 520 -98 81
-38 176 -77 212 -87 91 -25 250 -22 354 6 90 24 106 34 106 68 0 18 -9 28 -36
39 -117 49 -259 176 -322 287 -55 97 -84 199 -84 296 0 47 5 106 12 131 17 63
61 150 75 150 8 0 18 -27 25 -65 18 -96 61 -161 135 -202 33 -18 94 -40 135
-48 200 -43 246 -67 307 -162 42 -65 91 -93 166 -93 47 0 57 4 85 33 44 45 72
116 79 197 7 85 4 91 -158 327 -82 118 -126 192 -136 226 -31 108 -51 135
-158 214 -160 119 -164 133 -79 226 65 72 92 121 110 197 7 30 12 55 11 56 -1
1 -24 -16 -52 -38z"/>
</g>
</svg>
